<svg xmlns="http://www.w3.org/2000/svg"
 xmlns:xlink="http://www.w3.org/1999/xlink"
 width="9px" height="20px"  viewBox="0 0 9 24">
<path fill-rule="evenodd"  fill="#a3b1c4"
 d="M2.011963,19.93164 C2.0496826,18.827637 3.0720215,17.960693 4.2957764,17.993652 C5.5195312,18.028076 6.480957,18.95044 6.4433594,20.053955 C6.4057617,21.158447 5.383301,22.024658 4.159546,21.9917 C2.9360352,21.956787 1.9744873,21.034912 2.011963,19.93164 ZM2.2843018,11.9375 C2.3218994,10.833008 3.3443604,9.966797 4.568115,9.999756 C5.791748,10.033936 6.753296,10.956299 6.7156982,12.060547 C6.6781006,13.163818 5.6556396,14.03125 4.431885,13.997559 C3.208252,13.962891 2.246704,13.041016 2.2843018,11.9375 ZM2.5566406,3.9436035 C2.5942383,2.8395996 3.6166992,1.972168 4.840332,2.0063477 C6.064087,2.0393066 7.025635,2.9624023 6.988037,4.065674 C6.9504395,5.1691895 5.9279785,6.0373535 4.7042236,6.0029297 C3.4805908,5.96875 2.519043,5.046875 2.5566406,3.9436035 Z"/>
</svg>