<svg xmlns="http://www.w3.org/2000/svg"
 xmlns:xlink="http://www.w3.org/1999/xlink"
 width="18px" height="18px"  viewBox="0 0 18 18">
<path fill-rule="evenodd"  fill="#7347c1"
 d="M1.1665039,8.666016 C1.1665039,12.808228 4.523926,16.165527 8.666504,16.165527 C12.808105,16.165527 16.166504,12.808228 16.166504,8.666016 C16.166504,4.5238037 12.808105,1.1652832 8.666504,1.1652832 C4.523926,1.1652832 1.1665039,4.5238037 1.1665039,8.666016 ZM1.7443848,8.666016 C1.7443848,7.661621 1.9604492,6.709839 2.3439941,5.8485107 C2.3439941,5.8485107 5.645874,14.894653 5.645874,14.894653 C3.3370361,13.77356 1.7443848,11.405273 1.7443848,8.666016 ZM8.666504,15.58728 C7.9870605,15.58728 7.3306885,15.488159 6.7108154,15.30603 C6.7108154,15.30603 8.788208,9.271851 8.788208,9.271851 C8.788208,9.271851 10.9157715,15.100586 10.9157715,15.100586 C10.9296875,15.134888 10.946777,15.164795 10.9646,15.194824 C10.24585,15.449097 9.471924,15.58728 8.666504,15.58728 ZM14.26062,8.535889 C14.6553955,7.5479736 14.787598,6.758789 14.787598,6.0563965 C14.787598,5.802124 14.770386,5.5655518 14.739746,5.3442383 C15.280029,6.3308105 15.58728,7.461792 15.58728,8.666016 C15.58728,11.220093 14.203857,13.448853 12.146606,14.648315 C12.146606,14.648315 14.26062,8.535889 14.26062,8.535889 ZM12.768066,6.4072266 C13.03064,6.868164 13.339111,7.4605713 13.339111,8.316406 C13.339111,8.908691 13.162842,9.653931 12.812378,10.554321 C12.812378,10.554321 12.121582,12.8602295 12.121582,12.8602295 C12.121582,12.8602295 9.619873,5.4206543 9.619873,5.4206543 C10.037598,5.397339 10.411987,5.3552246 10.411987,5.3552246 C10.784912,5.3099365 10.740356,4.7628174 10.368408,4.7836914 C10.368408,4.7836914 9.246826,4.8723145 8.523071,4.8723145 C7.8427734,4.8723145 6.7005615,4.7836914 6.7005615,4.7836914 C6.3271484,4.7628174 6.2839355,5.333252 6.656128,5.3552246 C6.656128,5.3552246 7.01001,5.397339 7.3830566,5.4206543 C7.3830566,5.4206543 8.460449,8.375732 8.460449,8.375732 C8.460449,8.375732 6.946045,12.917725 6.946045,12.917725 C6.946045,12.917725 4.4249268,5.4206543 4.4249268,5.4206543 C4.842407,5.397339 5.2177734,5.3552246 5.2177734,5.3552246 C5.5910645,5.3099365 5.54541,4.7628174 5.173462,4.7836914 C5.173462,4.7836914 4.0528564,4.8723145 3.328125,4.8723145 C3.1983643,4.8723145 3.0458984,4.8686523 2.8831787,4.86438 C4.121216,2.9846191 6.2487793,1.7436523 8.666504,1.7436523 C10.468628,1.7436523 12.109375,2.4326172 13.34021,3.5616455 C13.310669,3.559204 13.281128,3.555542 13.251465,3.555542 C12.569946,3.555542 12.088623,4.147827 12.088623,4.7836914 C12.088867,5.3552246 12.417603,5.8375244 12.768066,6.4072266 Z"/>
</svg>